# xmcd CD database file
#
# Track frame offsets:
#	150
#	13599
#	24731
#	38046
#	49993
#	62860
#	75680
#	91711
#	104540
#	124914
#	140515
#	154378
#
# Disc length: 2322 seconds
#
# Revision: 0
# Processed by: cddbd v1.5.2PL0 Copyright (c) Steve Scherf et al.
# Submitted via: CDex 1.51
#
DISCID=a009100c
DTITLE=The Beatles - Mariachillout Vol 3
DYEAR=2008
DGENRE=Salsa
TTITLE0=The fool on the hill
TTITLE1=Eleanor rigby
TTITLE2=Octopus garden
TTITLE3=Birthday
TTITLE4=Michelle
TTITLE5=I should have knows better
TTITLE6=Come together
TTITLE7=Back to the USSR
TTITLE8=While my guitar gently weeps
TTITLE9=Oh darling
TTITLE10=Penny lany
TTITLE11=Golden slumbers, carry that weight, the end
EXTD=YEAR: 2008
EXTT0=
EXTT1=
EXTT2=
EXTT3=
EXTT4=
EXTT5=
EXTT6=
EXTT7=
EXTT8=
EXTT9=
EXTT10=
EXTT11=
PLAYORDER=
